<?xml version="1.0" standalone="no"?>
<!DOCTYPE svg PUBLIC "-//W3C//DTD SVG 20010904//EN"
 "http://www.w3.org/TR/2001/REC-SVG-20010904/DTD/svg10.dtd">
<svg version="1.0" xmlns="http://www.w3.org/2000/svg"
 width="260.000000pt" height="260.000000pt" viewBox="0 0 260.000000 260.000000"
 preserveAspectRatio="xMidYMid meet">
<metadata>
Created by potrace 1.11, written by Peter Selinger 2001-2013
</metadata>
<g transform="translate(0.000000,260.000000) scale(0.100000,-0.100000)"
fill="#000000" stroke="none">
<path d="M90 1600 c-19 -19 -20 -33 -20 -235 l0 -215 55 0 55 0 0 215 c0 202
-1 216 -20 235 -11 11 -27 20 -35 20 -8 0 -24 -9 -35 -20z"/>
<path d="M284 1610 c-12 -4 -31 -21 -43 -36 -20 -25 -21 -38 -21 -225 l0 -199
50 0 50 0 2 170 3 170 134 -150 c176 -197 208 -217 270 -164 37 31 51 77 51
166 0 73 -14 115 -40 123 -46 15 -74 -34 -68 -119 1 -31 0 -56 -4 -56 -4 0
-69 68 -145 151 -160 175 -183 192 -239 169z"/>
<path d="M702 1613 c-25 -10 -34 -53 -17 -79 13 -20 24 -24 70 -24 l55 0 0
-180 0 -180 50 0 50 0 2 178 3 177 55 3 c59 3 80 18 80 57 0 48 -25 55 -186
54 -82 0 -155 -3 -162 -6z"/>
<path d="M1191 1607 c-76 -24 -141 -127 -141 -222 0 -126 99 -235 212 -235 71
0 178 92 163 140 -11 34 -42 44 -72 23 -84 -60 -95 -63 -143 -38 -83 43 -78
189 9 224 38 16 70 9 109 -24 61 -51 123 -16 87 51 -40 75 -135 109 -224 81z"/>
<path d="M1595 1601 c-45 -20 -91 -69 -112 -118 -21 -53 -16 -160 11 -213 103
-204 379 -121 378 113 0 169 -141 280 -277 218z m134 -117 c85 -72 46 -219
-59 -219 -93 0 -140 121 -78 200 39 50 92 57 137 19z"/>
<path d="M2060 1611 c-56 -17 -91 -43 -117 -89 -27 -45 -28 -53 -31 -209 l-4
-163 50 0 51 0 3 156 c3 150 4 157 27 175 13 10 38 19 57 19 l34 0 0 60 c0 56
-2 60 -22 59 -13 0 -34 -4 -48 -8z"/>
<path d="M2294 1601 c-100 -45 -150 -178 -113 -302 24 -80 110 -148 187 -149
86 0 188 81 162 130 -15 28 -49 25 -83 -7 -23 -23 -37 -28 -78 -28 -44 0 -54
4 -80 33 -53 59 -47 62 116 62 l145 0 6 25 c15 60 -20 157 -73 206 -54 50
-121 61 -189 30z m149 -111 c16 -18 26 -37 24 -43 -5 -16 -186 -22 -201 -7
-12 12 20 59 55 78 37 20 90 7 122 -28z"/>
</g>
</svg>
